<svg width="33" height="36" viewBox="0 0 33 36" fill="none" xmlns="http://www.w3.org/2000/svg">
<g clip-path="url(#clip0_8_159)">
<path d="M13.7533 15.9658L1.50908 4.13793C1.28309 3.91962 1.15228 3.61576 1.14769 3.29957C1.13457 2.39451 2.09349 1.80351 2.88304 2.21901L18.7486 10.5681C19.4623 10.9437 19.6 11.9074 19.0199 12.4678L15.3988 15.9658C14.9398 16.4091 14.2122 16.4091 13.7533 15.9658Z" fill="white" stroke="black" stroke-width="0.789474"/>
<path d="M1.17357 7.70034C1.16886 6.65517 2.42434 6.11861 3.17919 6.84739L13.1334 16.4578C13.6155 16.9233 13.6156 17.6958 13.1336 18.1614L3.27097 27.6887C2.52106 28.4132 1.26838 27.885 1.26353 26.8423C1.25282 24.5405 1.24035 21.9185 1.22768 19.2533C1.20828 15.1722 1.1884 10.9897 1.17357 7.70034Z" fill="white" stroke="black" stroke-width="0.789474"/>
<path d="M16.0194 16.4579L20.2735 12.3535C20.6566 11.9838 21.2393 11.9153 21.6977 12.1859L29.6307 16.8687C30.4027 17.3244 30.408 18.4394 29.6404 18.9025L22.5066 23.2056C22.047 23.4829 21.4583 23.4163 21.0722 23.0434L16.0189 18.1619C15.5367 17.6961 15.537 16.9234 16.0194 16.4579Z" fill="white" stroke="black" stroke-width="0.789474"/>
<path d="M15.3985 18.6602L19.8604 22.9704C20.4348 23.5253 20.3064 24.4782 19.6055 24.8612L3.02477 33.9226C2.23562 34.3538 1.27267 33.7827 1.27267 32.8834V31.2121C1.27267 30.8908 1.40321 30.5833 1.63436 30.3601L13.7532 18.6599C14.2121 18.2168 14.9396 18.2169 15.3985 18.6602Z" fill="white" stroke="black" stroke-width="0.789474"/>
</g>
<defs>
<clipPath id="clip0_8_159">
<rect width="31.4286" height="34.7368" fill="white" transform="translate(0.714233 0.631584)"/>
</clipPath>
</defs>
</svg>
