<svg width="28" height="30" viewBox="0 0 28 30" fill="none" xmlns="http://www.w3.org/2000/svg">
<path d="M15 0.99999C15 0.447704 14.5517 -0.00348505 14.0006 0.0332886C10.3874 0.274412 6.96996 1.81683 4.3934 4.39339C1.58035 7.20643 0 11.0217 0 15C0 18.9782 1.58035 22.7935 4.39339 25.6066C6.96996 28.1831 10.3873 29.7256 14.0006 29.9667C14.5517 30.0035 15 29.5523 15 29V18.874C13.2748 18.4299 12 16.8638 12 15C12 13.1362 13.2748 11.5701 15 11.126V0.99999Z" fill="#FF6525"/>
<path d="M18 18.874C19.7252 18.4299 21 16.8638 21 15C21 13.1362 19.7252 11.5701 18 11.126V5C18 4.44772 18.4491 3.99434 18.998 4.05489C21.2837 4.30698 23.4324 5.41932 25.0711 7.22182C26.9464 9.28473 28 12.0826 28 15C28 17.9174 26.9464 20.7153 25.0711 22.7782C23.4324 24.5807 21.2837 25.693 18.998 25.9451C18.4491 26.0057 18 25.5523 18 25V18.874Z" fill="#FF6525"/>
</svg>
