<svg width="29" height="36" viewBox="0 0 29 36" fill="none" xmlns="http://www.w3.org/2000/svg">
<path d="M24.2068 19.1046C24.1675 14.7161 27.783 12.5811 27.9483 12.4817C25.9007 9.48206 22.7271 9.07221 21.6119 9.03954C18.9463 8.75768 16.3607 10.6422 15.0029 10.6422C13.618 10.6422 11.527 9.06677 9.27342 9.11306C6.37344 9.158 3.66059 10.845 2.17255 13.4648C-0.898058 18.8064 1.39199 26.6561 4.33409 30.9737C5.80564 33.0897 7.52541 35.4494 9.77617 35.3663C11.9782 35.2764 12.8008 33.957 15.4582 33.957C18.0911 33.957 18.8637 35.3663 21.1591 35.3132C23.5226 35.2764 25.0104 33.1891 26.4307 31.0554C28.1314 28.6331 28.8142 26.2449 28.8415 26.1223C28.7871 26.1033 24.2529 24.3631 24.2068 19.1046ZM19.8704 6.19921C21.0547 4.71097 21.8652 2.68626 21.6402 0.631584C19.9258 0.707834 17.7821 1.82299 16.5475 3.27856C15.4553 4.5612 14.4796 6.66352 14.7316 8.64058C16.6574 8.78491 18.6345 7.66431 19.8704 6.19921Z" fill="white"/>
</svg>
